<svg width="506mm" height="403mm" viewBox="0 0 506 403" xmlns="http://www.w3.org/2000/svg" version="1.1" preserveAspectRatio="xMidYMid meet"><g id="svgGroup" stroke-linecap="round" fill-rule="evenodd" font-size="9pt" stroke="#000" stroke-width="0.25mm" fill="none" style="stroke:#000;stroke-width:0.25mm;fill:none"><path d="M 0 253 L 0 265.865 L 3 265.865 L 3 273.175 L 0 273.175 L 0 280.485 L 3 280.485 L 3 287.795 L 0 287.795 L 0 295.105 L 3 295.105 L 3 302.415 L 0 302.415 L 0 309.725 L 3 309.725 L 3 317.035 L 0 317.035 L 0 324.345 L 3 324.345 L 3 331.655 L 0 331.655 L 0 338.965 L 3 338.965 L 3 346.275 L 0 346.275 L 0 353.585 L 3 353.585 L 3 360.895 L 0 360.895 L 0 368.205 L 3 368.205 L 3 375.515 L 0 375.515 L 0 382.825 L 3 382.825 L 3 390.135 L 0 390.135 L 0 397.445 L 0 403 L 12.865 403 L 12.865 400 L 20.175 400 L 20.175 403 L 27.485 403 L 27.485 400 L 34.795 400 L 34.795 403 L 42.105 403 L 42.105 400 L 49.415 400 L 49.415 403 L 56.725 403 L 56.725 400 L 64.035 400 L 64.035 403 L 71.345 403 L 71.345 400 L 78.655 400 L 78.655 403 L 85.965 403 L 85.965 400 L 93.275 400 L 93.275 403 L 100.585 403 L 100.585 400 L 107.895 400 L 107.895 403 L 115.205 403 L 115.205 400 L 122.515 400 L 122.515 403 L 129.825 403 L 129.825 400 L 137.135 400 L 137.135 403 L 144.445 403 L 150 403 L 150 390.135 L 147 390.135 L 147 382.825 L 150 382.825 L 150 375.515 L 147 375.515 L 147 368.205 L 150 368.205 L 150 360.895 L 147 360.895 L 147 353.585 L 150 353.585 L 150 346.275 L 147 346.275 L 147 338.965 L 150 338.965 L 150 331.655 L 147 331.655 L 147 324.345 L 150 324.345 L 150 317.035 L 147 317.035 L 147 309.725 L 150 309.725 L 150 302.415 L 147 302.415 L 147 295.105 L 150 295.105 L 150 287.795 L 147 287.795 L 147 280.485 L 150 280.485 L 150 273.175 L 147 273.175 L 147 265.865 L 150 265.865 L 150 258.555 L 150 253 L 137.135 253 L 137.135 256 L 129.825 256 L 129.825 253 L 122.515 253 L 122.515 256 L 115.205 256 L 115.205 253 L 107.895 253 L 107.895 256 L 100.585 256 L 100.585 253 L 93.275 253 L 93.275 256 L 85.965 256 L 85.965 253 L 78.655 253 L 78.655 256 L 71.345 256 L 71.345 253 L 64.035 253 L 64.035 256 L 56.725 256 L 56.725 253 L 49.415 253 L 49.415 256 L 42.105 256 L 42.105 253 L 34.795 253 L 34.795 256 L 27.485 256 L 27.485 253 L 20.175 253 L 20.175 256 L 12.865 256 L 12.865 253 L 5.555 253 L 0 253 Z" id="front_outsideCutPath" stroke="#FF0000" stroke-width="0.1" style="stroke:#FF0000;stroke-width:0.1" vector-effect="non-scaling-stroke"/><path d="M 156 253 L 156 265.865 L 153 265.865 L 153 273.175 L 156 273.175 L 156 280.485 L 153 280.485 L 153 287.795 L 156 287.795 L 156 295.105 L 153 295.105 L 153 302.415 L 156 302.415 L 156 309.725 L 153 309.725 L 153 317.035 L 156 317.035 L 156 324.345 L 153 324.345 L 153 331.655 L 156 331.655 L 156 338.965 L 153 338.965 L 153 346.275 L 156 346.275 L 156 353.585 L 153 353.585 L 153 360.895 L 156 360.895 L 156 368.205 L 153 368.205 L 153 375.515 L 156 375.515 L 156 382.825 L 153 382.825 L 153 390.135 L 156 390.135 L 156 397.445 L 156 403 L 161.625 403 L 161.625 400 L 168.935 400 L 168.935 403 L 176.245 403 L 176.245 400 L 183.555 400 L 183.555 403 L 190.865 403 L 190.865 400 L 198.175 400 L 198.175 403 L 205.485 403 L 205.485 400 L 212.795 400 L 212.795 403 L 220.105 403 L 220.105 400 L 227.415 400 L 227.415 403 L 234.725 403 L 234.725 400 L 242.035 400 L 242.035 403 L 249.345 403 L 249.345 400 L 256.655 400 L 256.655 403 L 263.965 403 L 263.965 400 L 271.275 400 L 271.275 403 L 278.585 403 L 278.585 400 L 285.895 400 L 285.895 403 L 293.205 403 L 293.205 400 L 300.515 400 L 300.515 403 L 307.825 403 L 307.825 400 L 315.135 400 L 315.135 403 L 322.445 403 L 322.445 400 L 329.755 400 L 329.755 403 L 337.065 403 L 337.065 400 L 344.375 400 L 344.375 403 L 350 403 L 350 390.135 L 353 390.135 L 353 382.825 L 350 382.825 L 350 375.515 L 353 375.515 L 353 368.205 L 350 368.205 L 350 360.895 L 353 360.895 L 353 353.585 L 350 353.585 L 350 346.275 L 353 346.275 L 353 338.965 L 350 338.965 L 350 331.655 L 353 331.655 L 353 324.345 L 350 324.345 L 350 317.035 L 353 317.035 L 353 309.725 L 350 309.725 L 350 302.415 L 353 302.415 L 353 295.105 L 350 295.105 L 350 287.795 L 353 287.795 L 353 280.485 L 350 280.485 L 350 273.175 L 353 273.175 L 353 265.865 L 350 265.865 L 350 258.555 L 350 253 L 344.375 253 L 344.375 256 L 337.065 256 L 337.065 253 L 329.755 253 L 329.755 256 L 322.445 256 L 322.445 253 L 315.135 253 L 315.135 256 L 307.825 256 L 307.825 253 L 300.515 253 L 300.515 256 L 293.205 256 L 293.205 253 L 285.895 253 L 285.895 256 L 278.585 256 L 278.585 253 L 271.275 253 L 271.275 256 L 263.965 256 L 263.965 253 L 256.655 253 L 256.655 256 L 249.345 256 L 249.345 253 L 242.035 253 L 242.035 256 L 234.725 256 L 234.725 253 L 227.415 253 L 227.415 256 L 220.105 256 L 220.105 253 L 212.795 253 L 212.795 256 L 205.485 256 L 205.485 253 L 198.175 253 L 198.175 256 L 190.865 256 L 190.865 253 L 183.555 253 L 183.555 256 L 176.245 256 L 176.245 253 L 168.935 253 L 168.935 256 L 161.625 256 L 161.625 253 L 156 253 Z" id="left_outsideCutPath" stroke="#FF0000" stroke-width="0.1" style="stroke:#FF0000;stroke-width:0.1" vector-effect="non-scaling-stroke"/><path d="M 359 206 L 359 211.625 L 356 211.625 L 356 218.935 L 359 218.935 L 359 226.245 L 356 226.245 L 356 233.555 L 359 233.555 L 359 240.865 L 356 240.865 L 356 248.175 L 359 248.175 L 359 255.485 L 356 255.485 L 356 262.795 L 359 262.795 L 359 270.105 L 356 270.105 L 356 277.415 L 359 277.415 L 359 284.725 L 356 284.725 L 356 292.035 L 359 292.035 L 359 299.345 L 356 299.345 L 356 306.655 L 359 306.655 L 359 313.965 L 356 313.965 L 356 321.275 L 359 321.275 L 359 328.585 L 356 328.585 L 356 335.895 L 359 335.895 L 359 343.205 L 356 343.205 L 356 350.515 L 359 350.515 L 359 357.825 L 356 357.825 L 356 365.135 L 359 365.135 L 359 372.445 L 356 372.445 L 356 379.755 L 359 379.755 L 359 387.065 L 356 387.065 L 356 394.375 L 359 394.375 L 359 400 L 368.865 400 L 368.865 403 L 376.175 403 L 376.175 400 L 383.485 400 L 383.485 403 L 390.795 403 L 390.795 400 L 398.105 400 L 398.105 403 L 405.415 403 L 405.415 400 L 412.725 400 L 412.725 403 L 420.035 403 L 420.035 400 L 427.345 400 L 427.345 403 L 434.655 403 L 434.655 400 L 441.965 400 L 441.965 403 L 449.275 403 L 449.275 400 L 456.585 400 L 456.585 403 L 463.895 403 L 463.895 400 L 471.205 400 L 471.205 403 L 478.515 403 L 478.515 400 L 485.825 400 L 485.825 403 L 493.135 403 L 493.135 400 L 500.445 400 L 503 400 L 503 394.375 L 506 394.375 L 506 387.065 L 503 387.065 L 503 379.755 L 506 379.755 L 506 372.445 L 503 372.445 L 503 365.135 L 506 365.135 L 506 357.825 L 503 357.825 L 503 350.515 L 506 350.515 L 506 343.205 L 503 343.205 L 503 335.895 L 506 335.895 L 506 328.585 L 503 328.585 L 503 321.275 L 506 321.275 L 506 313.965 L 503 313.965 L 503 306.655 L 506 306.655 L 506 299.345 L 503 299.345 L 503 292.035 L 506 292.035 L 506 284.725 L 503 284.725 L 503 277.415 L 506 277.415 L 506 270.105 L 503 270.105 L 503 262.795 L 506 262.795 L 506 255.485 L 503 255.485 L 503 248.175 L 506 248.175 L 506 240.865 L 503 240.865 L 503 233.555 L 506 233.555 L 506 226.245 L 503 226.245 L 503 218.935 L 506 218.935 L 506 211.625 L 503 211.625 L 503 206 L 493.135 206 L 493.135 203 L 485.825 203 L 485.825 206 L 478.515 206 L 478.515 203 L 471.205 203 L 471.205 206 L 463.895 206 L 463.895 203 L 456.585 203 L 456.585 206 L 449.275 206 L 449.275 203 L 441.965 203 L 441.965 206 L 434.655 206 L 434.655 203 L 427.345 203 L 427.345 206 L 420.035 206 L 420.035 203 L 412.725 203 L 412.725 206 L 405.415 206 L 405.415 203 L 398.105 203 L 398.105 206 L 390.795 206 L 390.795 203 L 383.485 203 L 383.485 206 L 376.175 206 L 376.175 203 L 368.865 203 L 368.865 206 L 361.555 206 L 359 206 Z" id="top_outsideCutPath" stroke="#FF0000" stroke-width="0.1" style="stroke:#FF0000;stroke-width:0.1" vector-effect="non-scaling-stroke"/><path d="M 0 100 L 0 112.865 L 3 112.865 L 3 120.175 L 0 120.175 L 0 127.485 L 3 127.485 L 3 134.795 L 0 134.795 L 0 142.105 L 3 142.105 L 3 149.415 L 0 149.415 L 0 156.725 L 3 156.725 L 3 164.035 L 0 164.035 L 0 171.345 L 3 171.345 L 3 178.655 L 0 178.655 L 0 185.965 L 3 185.965 L 3 193.275 L 0 193.275 L 0 200.585 L 3 200.585 L 3 207.895 L 0 207.895 L 0 215.205 L 3 215.205 L 3 222.515 L 0 222.515 L 0 229.825 L 3 229.825 L 3 237.135 L 0 237.135 L 0 244.445 L 0 250 L 12.865 250 L 12.865 247 L 20.175 247 L 20.175 250 L 27.485 250 L 27.485 247 L 34.795 247 L 34.795 250 L 42.105 250 L 42.105 247 L 49.415 247 L 49.415 250 L 56.725 250 L 56.725 247 L 64.035 247 L 64.035 250 L 71.345 250 L 71.345 247 L 78.655 247 L 78.655 250 L 85.965 250 L 85.965 247 L 93.275 247 L 93.275 250 L 100.585 250 L 100.585 247 L 107.895 247 L 107.895 250 L 115.205 250 L 115.205 247 L 122.515 247 L 122.515 250 L 129.825 250 L 129.825 247 L 137.135 247 L 137.135 250 L 144.445 250 L 150 250 L 150 237.135 L 147 237.135 L 147 229.825 L 150 229.825 L 150 222.515 L 147 222.515 L 147 215.205 L 150 215.205 L 150 207.895 L 147 207.895 L 147 200.585 L 150 200.585 L 150 193.275 L 147 193.275 L 147 185.965 L 150 185.965 L 150 178.655 L 147 178.655 L 147 171.345 L 150 171.345 L 150 164.035 L 147 164.035 L 147 156.725 L 150 156.725 L 150 149.415 L 147 149.415 L 147 142.105 L 150 142.105 L 150 134.795 L 147 134.795 L 147 127.485 L 150 127.485 L 150 120.175 L 147 120.175 L 147 112.865 L 150 112.865 L 150 105.555 L 150 100 L 137.135 100 L 137.135 103 L 129.825 103 L 129.825 100 L 122.515 100 L 122.515 103 L 115.205 103 L 115.205 100 L 107.895 100 L 107.895 103 L 100.585 103 L 100.585 100 L 93.275 100 L 93.275 103 L 85.965 103 L 85.965 100 L 78.655 100 L 78.655 103 L 71.345 103 L 71.345 100 L 64.035 100 L 64.035 103 L 56.725 103 L 56.725 100 L 49.415 100 L 49.415 103 L 42.105 103 L 42.105 100 L 34.795 100 L 34.795 103 L 27.485 103 L 27.485 100 L 20.175 100 L 20.175 103 L 12.865 103 L 12.865 100 L 5.555 100 L 0 100 Z" id="back_outsideCutPath" stroke="#FF0000" stroke-width="0.1" style="stroke:#FF0000;stroke-width:0.1" vector-effect="non-scaling-stroke"/><path d="M 156 100 L 156 112.865 L 153 112.865 L 153 120.175 L 156 120.175 L 156 127.485 L 153 127.485 L 153 134.795 L 156 134.795 L 156 142.105 L 153 142.105 L 153 149.415 L 156 149.415 L 156 156.725 L 153 156.725 L 153 164.035 L 156 164.035 L 156 171.345 L 153 171.345 L 153 178.655 L 156 178.655 L 156 185.965 L 153 185.965 L 153 193.275 L 156 193.275 L 156 200.585 L 153 200.585 L 153 207.895 L 156 207.895 L 156 215.205 L 153 215.205 L 153 222.515 L 156 222.515 L 156 229.825 L 153 229.825 L 153 237.135 L 156 237.135 L 156 244.445 L 156 250 L 161.625 250 L 161.625 247 L 168.935 247 L 168.935 250 L 176.245 250 L 176.245 247 L 183.555 247 L 183.555 250 L 190.865 250 L 190.865 247 L 198.175 247 L 198.175 250 L 205.485 250 L 205.485 247 L 212.795 247 L 212.795 250 L 220.105 250 L 220.105 247 L 227.415 247 L 227.415 250 L 234.725 250 L 234.725 247 L 242.035 247 L 242.035 250 L 249.345 250 L 249.345 247 L 256.655 247 L 256.655 250 L 263.965 250 L 263.965 247 L 271.275 247 L 271.275 250 L 278.585 250 L 278.585 247 L 285.895 247 L 285.895 250 L 293.205 250 L 293.205 247 L 300.515 247 L 300.515 250 L 307.825 250 L 307.825 247 L 315.135 247 L 315.135 250 L 322.445 250 L 322.445 247 L 329.755 247 L 329.755 250 L 337.065 250 L 337.065 247 L 344.375 247 L 344.375 250 L 350 250 L 350 237.135 L 353 237.135 L 353 229.825 L 350 229.825 L 350 222.515 L 353 222.515 L 353 215.205 L 350 215.205 L 350 207.895 L 353 207.895 L 353 200.585 L 350 200.585 L 350 193.275 L 353 193.275 L 353 185.965 L 350 185.965 L 350 178.655 L 353 178.655 L 353 171.345 L 350 171.345 L 350 164.035 L 353 164.035 L 353 156.725 L 350 156.725 L 350 149.415 L 353 149.415 L 353 142.105 L 350 142.105 L 350 134.795 L 353 134.795 L 353 127.485 L 350 127.485 L 350 120.175 L 353 120.175 L 353 112.865 L 350 112.865 L 350 105.555 L 350 100 L 344.375 100 L 344.375 103 L 337.065 103 L 337.065 100 L 329.755 100 L 329.755 103 L 322.445 103 L 322.445 100 L 315.135 100 L 315.135 103 L 307.825 103 L 307.825 100 L 300.515 100 L 300.515 103 L 293.205 103 L 293.205 100 L 285.895 100 L 285.895 103 L 278.585 103 L 278.585 100 L 271.275 100 L 271.275 103 L 263.965 103 L 263.965 100 L 256.655 100 L 256.655 103 L 249.345 103 L 249.345 100 L 242.035 100 L 242.035 103 L 234.725 103 L 234.725 100 L 227.415 100 L 227.415 103 L 220.105 103 L 220.105 100 L 212.795 100 L 212.795 103 L 205.485 103 L 205.485 100 L 198.175 100 L 198.175 103 L 190.865 103 L 190.865 100 L 183.555 100 L 183.555 103 L 176.245 103 L 176.245 100 L 168.935 100 L 168.935 103 L 161.625 103 L 161.625 100 L 156 100 Z" id="right_outsideCutPath" stroke="#FF0000" stroke-width="0.1" style="stroke:#FF0000;stroke-width:0.1" vector-effect="non-scaling-stroke"/><path d="M 359 3 L 359 8.625 L 356 8.625 L 356 15.935 L 359 15.935 L 359 23.245 L 356 23.245 L 356 30.555 L 359 30.555 L 359 37.865 L 356 37.865 L 356 45.175 L 359 45.175 L 359 52.485 L 356 52.485 L 356 59.795 L 359 59.795 L 359 67.105 L 356 67.105 L 356 74.415 L 359 74.415 L 359 81.725 L 356 81.725 L 356 89.035 L 359 89.035 L 359 96.345 L 356 96.345 L 356 103.655 L 359 103.655 L 359 110.965 L 356 110.965 L 356 118.275 L 359 118.275 L 359 125.585 L 356 125.585 L 356 132.895 L 359 132.895 L 359 140.205 L 356 140.205 L 356 147.515 L 359 147.515 L 359 154.825 L 356 154.825 L 356 162.135 L 359 162.135 L 359 169.445 L 356 169.445 L 356 176.755 L 359 176.755 L 359 184.065 L 356 184.065 L 356 191.375 L 359 191.375 L 359 197 L 368.865 197 L 368.865 200 L 376.175 200 L 376.175 197 L 383.485 197 L 383.485 200 L 390.795 200 L 390.795 197 L 398.105 197 L 398.105 200 L 405.415 200 L 405.415 197 L 412.725 197 L 412.725 200 L 420.035 200 L 420.035 197 L 427.345 197 L 427.345 200 L 434.655 200 L 434.655 197 L 441.965 197 L 441.965 200 L 449.275 200 L 449.275 197 L 456.585 197 L 456.585 200 L 463.895 200 L 463.895 197 L 471.205 197 L 471.205 200 L 478.515 200 L 478.515 197 L 485.825 197 L 485.825 200 L 493.135 200 L 493.135 197 L 500.445 197 L 503 197 L 503 191.375 L 506 191.375 L 506 184.065 L 503 184.065 L 503 176.755 L 506 176.755 L 506 169.445 L 503 169.445 L 503 162.135 L 506 162.135 L 506 154.825 L 503 154.825 L 503 147.515 L 506 147.515 L 506 140.205 L 503 140.205 L 503 132.895 L 506 132.895 L 506 125.585 L 503 125.585 L 503 118.275 L 506 118.275 L 506 110.965 L 503 110.965 L 503 103.655 L 506 103.655 L 506 96.345 L 503 96.345 L 503 89.035 L 506 89.035 L 506 81.725 L 503 81.725 L 503 74.415 L 506 74.415 L 506 67.105 L 503 67.105 L 503 59.795 L 506 59.795 L 506 52.485 L 503 52.485 L 503 45.175 L 506 45.175 L 506 37.865 L 503 37.865 L 503 30.555 L 506 30.555 L 506 23.245 L 503 23.245 L 503 15.935 L 506 15.935 L 506 8.625 L 503 8.625 L 503 3 L 493.135 3 L 493.135 0 L 485.825 0 L 485.825 3 L 478.515 3 L 478.515 0 L 471.205 0 L 471.205 3 L 463.895 3 L 463.895 0 L 456.585 0 L 456.585 3 L 449.275 3 L 449.275 0 L 441.965 0 L 441.965 3 L 434.655 3 L 434.655 0 L 427.345 0 L 427.345 3 L 420.035 3 L 420.035 0 L 412.725 0 L 412.725 3 L 405.415 3 L 405.415 0 L 398.105 0 L 398.105 3 L 390.795 3 L 390.795 0 L 383.485 0 L 383.485 3 L 376.175 3 L 376.175 0 L 368.865 0 L 368.865 3 L 361.555 3 L 359 3 Z" id="bottom_outsideCutPath" stroke="#FF0000" stroke-width="0.1" style="stroke:#FF0000;stroke-width:0.1" vector-effect="non-scaling-stroke"/></g></svg>