<?xml version="1.0" encoding="UTF-8" standalone="no"?>
<!-- Created with Inkscape (http://www.inkscape.org/) -->

<svg
   width="210mm"
   height="297mm"
   viewBox="0 0 210 297"
   version="1.1"
   id="svg5"
   inkscape:version="1.1.1 (3bf5ae0d25, 2021-09-20)"
   sodipodi:docname="dessin.svg"
   xmlns:inkscape="http://www.inkscape.org/namespaces/inkscape"
   xmlns:sodipodi="http://sodipodi.sourceforge.net/DTD/sodipodi-0.dtd"
   xmlns="http://www.w3.org/2000/svg"
   xmlns:svg="http://www.w3.org/2000/svg">
  <sodipodi:namedview
     id="namedview7"
     pagecolor="#ffffff"
     bordercolor="#666666"
     borderopacity="1.0"
     inkscape:pageshadow="2"
     inkscape:pageopacity="0.0"
     inkscape:pagecheckerboard="0"
     inkscape:document-units="mm"
     showgrid="false"
     inkscape:zoom="0.44275393"
     inkscape:cx="-170.52361"
     inkscape:cy="380.57257"
     inkscape:window-width="1366"
     inkscape:window-height="705"
     inkscape:window-x="-8"
     inkscape:window-y="-8"
     inkscape:window-maximized="1"
     inkscape:current-layer="layer1" />
  <defs
     id="defs2" />
  <g
     inkscape:label="Calque 1"
     inkscape:groupmode="layer"
     id="layer1">
    <g
       id="svgGroup"
       stroke-linecap="round"
       fill-rule="evenodd"
       font-size="12px"
       stroke="#000"
       stroke-width="0.25mm"
       fill="none"
       style="fill:none;stroke:#000000;stroke-width:0.25mm"
       transform="translate(-408.925,-136.38846)">
      <path
         d="m 0,253 v 12.865 h 3 v 7.31 H 0 v 7.31 h 3 v 7.31 H 0 v 7.31 h 3 v 7.31 H 0 v 7.31 h 3 v 7.31 H 0 v 7.31 h 3 v 7.31 H 0 v 7.31 h 3 v 7.31 H 0 v 7.31 h 3 v 7.31 H 0 v 7.31 h 3 v 7.31 H 0 v 7.31 h 3 v 7.31 H 0 v 7.31 5.555 h 12.865 v -3 h 7.31 v 3 h 7.31 v -3 h 7.31 v 3 h 7.31 v -3 h 7.31 v 3 h 7.31 v -3 h 7.31 v 3 h 7.31 v -3 h 7.31 v 3 h 7.31 v -3 h 7.31 v 3 h 7.31 v -3 h 7.31 v 3 h 7.31 v -3 h 7.31 v 3 h 7.31 v -3 h 7.31 v 3 h 7.31 5.555 v -12.865 h -3 v -7.31 h 3 v -7.31 h -3 v -7.31 h 3 v -7.31 h -3 v -7.31 h 3 v -7.31 h -3 v -7.31 h 3 v -7.31 h -3 v -7.31 h 3 v -7.31 h -3 v -7.31 h 3 v -7.31 h -3 v -7.31 h 3 v -7.31 h -3 v -7.31 h 3 v -7.31 h -3 v -7.31 h 3 V 258.555 253 h -12.865 v 3 h -7.31 v -3 h -7.31 v 3 h -7.31 v -3 h -7.31 v 3 h -7.31 v -3 h -7.31 v 3 h -7.31 v -3 h -7.31 v 3 h -7.31 v -3 h -7.31 v 3 h -7.31 v -3 h -7.31 v 3 h -7.31 v -3 h -7.31 v 3 h -7.31 v -3 h -7.31 v 3 h -7.31 v -3 h -7.31 z"
         id="front_outsideCutPath"
         stroke="#FF0000"
         stroke-width="0.1"
         style="stroke:#ff0000;stroke-width:0.1"
         vector-effect="non-scaling-stroke" />
      <path
         d="m 156,253 v 12.865 h -3 v 7.31 h 3 v 7.31 h -3 v 7.31 h 3 v 7.31 h -3 v 7.31 h 3 v 7.31 h -3 v 7.31 h 3 v 7.31 h -3 v 7.31 h 3 v 7.31 h -3 v 7.31 h 3 v 7.31 h -3 v 7.31 h 3 v 7.31 h -3 v 7.31 h 3 v 7.31 h -3 v 7.31 h 3 v 7.31 5.555 h 5.625 v -3 h 7.31 v 3 h 7.31 v -3 h 7.31 v 3 h 7.31 v -3 h 7.31 v 3 h 7.31 v -3 h 7.31 v 3 h 7.31 v -3 h 7.31 v 3 h 7.31 v -3 h 7.31 v 3 h 7.31 v -3 h 7.31 v 3 h 7.31 v -3 h 7.31 v 3 h 7.31 v -3 h 7.31 v 3 h 7.31 v -3 h 7.31 v 3 h 7.31 v -3 h 7.31 v 3 h 7.31 v -3 h 7.31 v 3 h 7.31 v -3 h 7.31 v 3 H 350 v -12.865 h 3 v -7.31 h -3 v -7.31 h 3 v -7.31 h -3 v -7.31 h 3 v -7.31 h -3 v -7.31 h 3 v -7.31 h -3 v -7.31 h 3 v -7.31 h -3 v -7.31 h 3 v -7.31 h -3 v -7.31 h 3 v -7.31 h -3 v -7.31 h 3 v -7.31 h -3 v -7.31 h 3 v -7.31 h -3 V 258.555 253 h -5.625 v 3 h -7.31 v -3 h -7.31 v 3 h -7.31 v -3 h -7.31 v 3 h -7.31 v -3 h -7.31 v 3 h -7.31 v -3 h -7.31 v 3 h -7.31 v -3 h -7.31 v 3 h -7.31 v -3 h -7.31 v 3 h -7.31 v -3 h -7.31 v 3 h -7.31 v -3 h -7.31 v 3 h -7.31 v -3 h -7.31 v 3 h -7.31 v -3 h -7.31 v 3 h -7.31 v -3 h -7.31 v 3 h -7.31 v -3 h -7.31 v 3 h -7.31 v -3 z"
         id="left_outsideCutPath"
         stroke="#FF0000"
         stroke-width="0.1"
         style="stroke:#ff0000;stroke-width:0.1"
         vector-effect="non-scaling-stroke" />
      <path
         d="m 359,206 v 5.625 h -3 v 7.31 h 3 v 7.31 h -3 v 7.31 h 3 v 7.31 h -3 v 7.31 h 3 v 7.31 h -3 v 7.31 h 3 v 7.31 h -3 v 7.31 h 3 v 7.31 h -3 v 7.31 h 3 v 7.31 h -3 v 7.31 h 3 v 7.31 h -3 v 7.31 h 3 v 7.31 h -3 v 7.31 h 3 v 7.31 h -3 v 7.31 h 3 v 7.31 h -3 v 7.31 h 3 v 7.31 h -3 v 7.31 h 3 v 7.31 h -3 v 7.31 h 3 V 400 h 9.865 v 3 h 7.31 v -3 h 7.31 v 3 h 7.31 v -3 h 7.31 v 3 h 7.31 v -3 h 7.31 v 3 h 7.31 v -3 h 7.31 v 3 h 7.31 v -3 h 7.31 v 3 h 7.31 v -3 h 7.31 v 3 h 7.31 v -3 h 7.31 v 3 h 7.31 v -3 h 7.31 v 3 h 7.31 v -3 h 7.31 2.555 v -5.625 h 3 v -7.31 h -3 v -7.31 h 3 v -7.31 h -3 v -7.31 h 3 v -7.31 h -3 v -7.31 h 3 v -7.31 h -3 v -7.31 h 3 v -7.31 h -3 v -7.31 h 3 v -7.31 h -3 v -7.31 h 3 v -7.31 h -3 v -7.31 h 3 v -7.31 h -3 v -7.31 h 3 v -7.31 h -3 v -7.31 h 3 v -7.31 h -3 v -7.31 h 3 v -7.31 h -3 v -7.31 h 3 v -7.31 h -3 v -7.31 h 3 v -7.31 h -3 V 206 h -9.865 v -3 h -7.31 v 3 h -7.31 v -3 h -7.31 v 3 h -7.31 v -3 h -7.31 v 3 h -7.31 v -3 h -7.31 v 3 h -7.31 v -3 h -7.31 v 3 h -7.31 v -3 h -7.31 v 3 h -7.31 v -3 h -7.31 v 3 h -7.31 v -3 h -7.31 v 3 h -7.31 v -3 h -7.31 v 3 h -7.31 z"
         id="top_outsideCutPath"
         stroke="#FF0000"
         stroke-width="0.1"
         style="stroke:#ff0000;stroke-width:0.1"
         vector-effect="non-scaling-stroke" />
      <path
         d="m 0,100 v 12.865 h 3 v 7.31 H 0 v 7.31 h 3 v 7.31 H 0 v 7.31 h 3 v 7.31 H 0 v 7.31 h 3 v 7.31 H 0 v 7.31 h 3 v 7.31 H 0 v 7.31 h 3 v 7.31 H 0 v 7.31 h 3 v 7.31 H 0 v 7.31 h 3 v 7.31 H 0 v 7.31 h 3 v 7.31 H 0 v 7.31 5.555 h 12.865 v -3 h 7.31 v 3 h 7.31 v -3 h 7.31 v 3 h 7.31 v -3 h 7.31 v 3 h 7.31 v -3 h 7.31 v 3 h 7.31 v -3 h 7.31 v 3 h 7.31 v -3 h 7.31 v 3 h 7.31 v -3 h 7.31 v 3 h 7.31 v -3 h 7.31 v 3 h 7.31 v -3 h 7.31 v 3 h 7.31 5.555 v -12.865 h -3 v -7.31 h 3 v -7.31 h -3 v -7.31 h 3 v -7.31 h -3 v -7.31 h 3 v -7.31 h -3 v -7.31 h 3 v -7.31 h -3 v -7.31 h 3 v -7.31 h -3 v -7.31 h 3 v -7.31 h -3 v -7.31 h 3 v -7.31 h -3 v -7.31 h 3 v -7.31 h -3 v -7.31 h 3 V 105.555 100 h -12.865 v 3 h -7.31 v -3 h -7.31 v 3 h -7.31 v -3 h -7.31 v 3 h -7.31 v -3 h -7.31 v 3 h -7.31 v -3 h -7.31 v 3 h -7.31 v -3 h -7.31 v 3 h -7.31 v -3 h -7.31 v 3 h -7.31 v -3 h -7.31 v 3 h -7.31 v -3 h -7.31 v 3 h -7.31 v -3 h -7.31 z"
         id="back_outsideCutPath"
         stroke="#FF0000"
         stroke-width="0.1"
         style="stroke:#ff0000;stroke-width:0.1"
         vector-effect="non-scaling-stroke" />
      <path
         d="m 156,100 v 12.865 h -3 v 7.31 h 3 v 7.31 h -3 v 7.31 h 3 v 7.31 h -3 v 7.31 h 3 v 7.31 h -3 v 7.31 h 3 v 7.31 h -3 v 7.31 h 3 v 7.31 h -3 v 7.31 h 3 v 7.31 h -3 v 7.31 h 3 v 7.31 h -3 v 7.31 h 3 v 7.31 h -3 v 7.31 h 3 v 7.31 5.555 h 5.625 v -3 h 7.31 v 3 h 7.31 v -3 h 7.31 v 3 h 7.31 v -3 h 7.31 v 3 h 7.31 v -3 h 7.31 v 3 h 7.31 v -3 h 7.31 v 3 h 7.31 v -3 h 7.31 v 3 h 7.31 v -3 h 7.31 v 3 h 7.31 v -3 h 7.31 v 3 h 7.31 v -3 h 7.31 v 3 h 7.31 v -3 h 7.31 v 3 h 7.31 v -3 h 7.31 v 3 h 7.31 v -3 h 7.31 v 3 h 7.31 v -3 h 7.31 v 3 H 350 v -12.865 h 3 v -7.31 h -3 v -7.31 h 3 v -7.31 h -3 v -7.31 h 3 v -7.31 h -3 v -7.31 h 3 v -7.31 h -3 v -7.31 h 3 v -7.31 h -3 v -7.31 h 3 v -7.31 h -3 v -7.31 h 3 v -7.31 h -3 v -7.31 h 3 v -7.31 h -3 v -7.31 h 3 v -7.31 h -3 V 105.555 100 h -5.625 v 3 h -7.31 v -3 h -7.31 v 3 h -7.31 v -3 h -7.31 v 3 h -7.31 v -3 h -7.31 v 3 h -7.31 v -3 h -7.31 v 3 h -7.31 v -3 h -7.31 v 3 h -7.31 v -3 h -7.31 v 3 h -7.31 v -3 h -7.31 v 3 h -7.31 v -3 h -7.31 v 3 h -7.31 v -3 h -7.31 v 3 h -7.31 v -3 h -7.31 v 3 h -7.31 v -3 h -7.31 v 3 h -7.31 v -3 h -7.31 v 3 h -7.31 v -3 z"
         id="right_outsideCutPath"
         stroke="#FF0000"
         stroke-width="0.1"
         style="stroke:#ff0000;stroke-width:0.1"
         vector-effect="non-scaling-stroke" />
      <path
         d="m 359,3 v 5.625 h -3 v 7.31 h 3 v 7.31 h -3 v 7.31 h 3 v 7.31 h -3 v 7.31 h 3 v 7.31 h -3 v 7.31 h 3 v 7.31 h -3 v 7.31 h 3 v 7.31 h -3 v 7.31 h 3 v 7.31 h -3 v 7.31 h 3 v 7.31 h -3 v 7.31 h 3 v 7.31 h -3 v 7.31 h 3 v 7.31 h -3 v 7.31 h 3 v 7.31 h -3 v 7.31 h 3 v 7.31 h -3 v 7.31 h 3 v 7.31 h -3 v 7.31 h 3 V 197 h 9.865 v 3 h 7.31 v -3 h 7.31 v 3 h 7.31 v -3 h 7.31 v 3 h 7.31 v -3 h 7.31 v 3 h 7.31 v -3 h 7.31 v 3 h 7.31 v -3 h 7.31 v 3 h 7.31 v -3 h 7.31 v 3 h 7.31 v -3 h 7.31 v 3 h 7.31 v -3 h 7.31 v 3 h 7.31 v -3 h 7.31 2.555 v -5.625 h 3 v -7.31 h -3 v -7.31 h 3 v -7.31 h -3 v -7.31 h 3 v -7.31 h -3 v -7.31 h 3 v -7.31 h -3 v -7.31 h 3 v -7.31 h -3 v -7.31 h 3 v -7.31 h -3 v -7.31 h 3 v -7.31 h -3 v -7.31 h 3 v -7.31 h -3 v -7.31 h 3 v -7.31 h -3 v -7.31 h 3 v -7.31 h -3 v -7.31 h 3 v -7.31 h -3 v -7.31 h 3 v -7.31 h -3 v -7.31 h 3 v -7.31 h -3 V 3 h -9.865 V 0 h -7.31 v 3 h -7.31 V 0 h -7.31 v 3 h -7.31 V 0 h -7.31 v 3 h -7.31 V 0 h -7.31 v 3 h -7.31 V 0 h -7.31 v 3 h -7.31 V 0 h -7.31 v 3 h -7.31 V 0 h -7.31 v 3 h -7.31 V 0 h -7.31 v 3 h -7.31 V 0 h -7.31 v 3 h -7.31 z"
         id="bottom_outsideCutPath"
         stroke="#FF0000"
         stroke-width="0.1"
         style="stroke:#ff0000;stroke-width:0.1"
         vector-effect="non-scaling-stroke" />
    </g>
    <ellipse
       style="fill:none;fill-rule:evenodd;stroke:#ff0000;stroke-width:0.396803;stroke-opacity:1"
       id="path68"
       cx="69.109612"
       cy="243.02596"
       rx="7.2185054"
       ry="7.7896595" />
    <rect
       style="fill:none;stroke:#ff0000;stroke-width:0.261128;stroke-opacity:1"
       id="rect1257"
       width="19.738873"
       height="19.738873"
       x="-93.22506"
       y="231.86143" />
  </g>
</svg>
